<svg width="341" height="226" viewBox="0 0 341 226" fill="none" xmlns="http://www.w3.org/2000/svg">
<path d="M2 218.924C2.22862 224.64 7.62101 221.576 11.3333 219.813C38.922 206.712 62.0399 180.571 80.9444 157.424C107.742 124.614 130.022 87.2088 145.111 47.591C147.003 42.6247 161.805 4.91057 148.333 2.09102C144.039 1.19218 140.531 7.1804 138.889 9.92435C129.741 25.2111 124.757 43.0089 120.111 60.0355C109.477 99.0066 98.8087 139.031 93.8333 179.202C92.6414 188.826 92.0763 198.454 92 208.147C91.9783 210.9 90.6337 221.528 93.2222 223.924C95.0475 225.614 95.9693 219.736 96.8889 217.424C101.223 206.53 105.996 195.995 111.944 185.869C118.13 175.338 124.852 162.857 134.778 155.313C138.723 152.315 144.04 151.171 144.778 157.591C146.199 169.954 142.286 183.298 139.556 195.202C139.022 197.527 132.859 217.911 139.444 218.035C145.834 218.156 154.204 202.686 157.111 198.758C164.509 188.761 172.095 178.793 178.556 168.147C180.518 164.913 183.854 153.163 181.444 162.48C178.664 173.231 177.375 184.376 177.444 195.48C177.479 201.042 177.176 210.063 183.333 212.702C193.433 217.03 204.868 212.055 214 207.758C225.327 202.427 235.432 194.814 244 185.702C250.948 178.313 259.322 169.35 260.167 158.702C261.066 147.371 247.745 155.741 243.778 159.369C236.413 166.104 227.848 177.847 230.667 188.48C233.437 198.932 245.31 208.835 256.222 209.258C269.173 209.759 279.396 198.806 285.278 188.48C288.77 182.349 291.189 175.659 292.389 168.702C293.298 163.429 290.431 174.944 290.444 176.702C290.496 183.462 292.25 194.157 298.611 198.035C307.411 203.401 317.961 186.532 322 181.147C328.41 172.599 333.518 164 338.278 154.48C339.593 151.85 337.937 161.854 337.778 162.591C335.296 174.047 333.346 185.569 333.056 197.313C332.963 201.068 331.448 209.556 335 211.924" stroke="black" stroke-width="3" stroke-linecap="round"/>
</svg>
